<?xml version="1.0" encoding="utf-8"?>
<!-- Generator: Adobe Illustrator 23.0.0, SVG Export Plug-In . SVG Version: 6.00 Build 0)  -->
<svg version="1.1" id="레이어_1" xmlns="http://www.w3.org/2000/svg" xmlns:xlink="http://www.w3.org/1999/xlink" x="0px"
	 y="0px" viewBox="0 0 31 44" style="enable-background:new 0 0 31 44;" xml:space="preserve">
<style type="text/css">
	.st0{fill:#FFFFFF;}
</style>
<path class="st0" d="M30.4,35.6l-8.4-8.4c4.4-5.2,3.8-13-1.4-17.4s-13-3.8-17.4,1.4s-3.8,13,1.4,17.4c4.6,3.9,11.4,3.9,16,0L29,37
	c0.4,0.4,1,0.4,1.4,0.1C30.8,36.7,30.8,36.1,30.4,35.6C30.4,35.7,30.4,35.7,30.4,35.6L30.4,35.6z M2.3,19.3C2.3,13.6,7,8.9,12.7,8.9
	s10.4,4.7,10.4,10.4c0,5.7-4.7,10.4-10.4,10.4C7,29.7,2.3,25,2.3,19.3z"/>
</svg>
