<?xml version="1.0" encoding="utf-8"?>
<!-- Generator: Adobe Illustrator 23.0.0, SVG Export Plug-In . SVG Version: 6.00 Build 0)  -->
<svg version="1.1" id="레이어_1" xmlns="http://www.w3.org/2000/svg" xmlns:xlink="http://www.w3.org/1999/xlink" x="0px"
	 y="0px" viewBox="0 0 18 44" style="enable-background:new 0 0 18 44;" xml:space="preserve">
<style type="text/css">
	.st0{fill:none;}
	.st1{fill:#FFFFFF;}
</style>
<rect y="-22" class="st0" width="18" height="88"/>
<path class="st1" d="M17.5,29.7L12.7,25c2.5-3,2.2-7.4-0.8-10s-7.4-2.2-10,0.8s-2.2,7.4,0.8,10c2.6,2.3,6.5,2.3,9.2,0l4.8,4.8
	c0.2,0.2,0.6,0.2,0.8,0C17.7,30.4,17.8,30,17.5,29.7C17.5,29.8,17.5,29.8,17.5,29.7L17.5,29.7z M1.4,20.4c0-3.3,2.7-5.9,6-5.9
	s5.9,2.7,5.9,6c0,3.3-2.7,5.9-5.9,5.9C4.1,26.3,1.4,23.7,1.4,20.4z"/>
</svg>
